<svg width="18" height="17" viewBox="0 0 18 17" fill="none" xmlns="http://www.w3.org/2000/svg">
<path d="M3.78571 1.82143H14.7143V0.910714C14.7143 0.669178 14.6183 0.437534 14.4475 0.266742C14.2768 0.09595 14.0451 0 13.8036 0H2.04018C1.698 0 1.36984 0.135929 1.12788 0.377885C0.885929 0.61984 0.75 0.948002 0.75 1.29018V13.0536C0.75 13.2951 0.84595 13.5268 1.01674 13.6975C1.18753 13.8683 1.41918 13.9643 1.66071 13.9643H2.57143V3.03571C2.57143 2.71367 2.69936 2.40481 2.92708 2.17708C3.15481 1.94936 3.46367 1.82143 3.78571 1.82143V1.82143Z" fill="#414141"/>
<path d="M16.8392 3.03571H4.69636C4.45482 3.03571 4.22318 3.13166 4.05239 3.30245C3.88159 3.47324 3.78564 3.70488 3.78564 3.94642V16.0893C3.78564 16.3308 3.88159 16.5625 4.05239 16.7333C4.22318 16.904 4.45482 17 4.69636 17H16.8392C17.0808 17 17.3124 16.904 17.4832 16.7333C17.654 16.5625 17.7499 16.3308 17.7499 16.0893V3.94642C17.7499 3.70488 17.654 3.47324 17.4832 3.30245C17.3124 3.13166 17.0808 3.03571 16.8392 3.03571ZM14.4106 10.625H11.3749V13.6607H10.1606V10.625H7.12493V9.41071H10.1606V6.37499H11.3749V9.41071H14.4106V10.625Z" fill="#414141"/>
</svg>
