<svg width="16" height="17" viewBox="0 0 16 17" fill="none" xmlns="http://www.w3.org/2000/svg">
<path d="M5.35693 6.07141H6.57122V13.3571H5.35693V6.07141Z" fill="black"/>
<path d="M9 6.07141H10.2143V13.3571H9V6.07141Z" fill="black"/>
<path d="M0.5 2.42859V3.64287H1.71429V15.7857C1.71429 16.1078 1.84222 16.4166 2.06994 16.6444C2.29766 16.8721 2.60652 17 2.92857 17H12.6429C12.9649 17 13.2738 16.8721 13.5015 16.6444C13.7292 16.4166 13.8571 16.1078 13.8571 15.7857V3.64287H15.0714V2.42859H0.5ZM2.92857 15.7857V3.64287H12.6429V15.7857H2.92857Z" fill="black"/>
<path d="M5.35693 0H10.2141V1.21429H5.35693V0Z" fill="black"/>
</svg>
