<svg width="16" height="17" viewBox="0 0 16 17" fill="none" xmlns="http://www.w3.org/2000/svg">
<path d="M16 10.8182C16 11.0275 15.901 11.2086 15.7031 11.3615L8.70313 16.7706C8.50521 16.9235 8.27083 17 8 17C7.72917 17 7.49479 16.9235 7.29688 16.7706L0.296875 11.3615C0.0989583 11.2086 0 11.0275 0 10.8182C0 10.6089 0.0989583 10.4278 0.296875 10.2749C0.494792 10.1219 0.729167 10.0455 1 10.0455H15C15.2708 10.0455 15.5052 10.1219 15.7031 10.2749C15.901 10.4278 16 10.6089 16 10.8182ZM16 6.18182C16 6.3911 15.901 6.57221 15.7031 6.72514C15.5052 6.87808 15.2708 6.95455 15 6.95455H1C0.729167 6.95455 0.494792 6.87808 0.296875 6.72514C0.0989583 6.57221 0 6.3911 0 6.18182C0 5.97254 0.0989583 5.79143 0.296875 5.63849L7.29688 0.229403C7.49479 0.0764678 7.72917 0 8 0C8.27083 0 8.50521 0.0764678 8.70313 0.229403L15.7031 5.63849C15.901 5.79143 16 5.97254 16 6.18182Z" fill="#414141"/>
</svg>
