<svg width="17" height="24" viewBox="0 0 17 24" fill="none" xmlns="http://www.w3.org/2000/svg">
<path d="M15.2062 1.3254L15.2061 1.32547L15.2134 1.33254C15.6042 1.71222 15.8236 2.23774 15.8236 2.78999V21.0718C15.8236 22.2192 14.8918 23.1496 13.7447 23.1496C13.1898 23.1496 12.6651 22.9299 12.2895 22.5406L12.2895 22.5406L12.2832 22.5342L7.59574 17.8489C7.23913 17.4923 6.75546 17.29 6.24897 17.29L4.42969 17.29L4.42762 17.29C2.63536 17.2974 1.17969 15.8456 1.17969 14.04V9.82178C1.17969 8.03939 2.63322 6.58175 4.43103 6.57178H6.22219C6.72569 6.57178 7.20851 6.37296 7.56515 6.01663C7.56535 6.01643 7.56555 6.01624 7.56574 6.01604L12.2822 1.32856L12.2822 1.32858L12.2861 1.32463C13.0863 0.511471 14.3999 0.509564 15.2062 1.3254Z" fill="#FFCE00" stroke="#9E4E4D"/>
</svg>
