<svg width="1920" height="869" viewBox="0 0 1920 869" fill="none" xmlns="http://www.w3.org/2000/svg">
<path d="M-94.4853 163.762C-62.7129 70.6002 -13.3181 -17.7596 49.2764 -106.116C118.677 -204.08 150.339 -324.86 294.822 -385.77C439.555 -446.786 628.8 -403.783 797.936 -421.733C963.945 -439.351 1125.08 -510.822 1286.06 -490.967C1447.54 -471.048 1562.93 -389.298 1668.55 -314.35C1768.26 -243.599 1831.97 -158.032 1881.73 -68.2998C1930.77 20.1457 1980.25 111.824 1957.78 207.267C1935.55 301.646 1831.57 381.365 1755.73 466.851C1677.28 555.281 1635.61 663.177 1501.41 721.691C1367.19 780.208 1190.68 757.672 1033.8 781.609C867.357 807.003 710.783 878.253 544.271 867.727C374.018 856.964 228.219 793.63 107.608 723.059C-12.0142 653.065 -108.743 565.316 -145.253 464.274C-180.435 366.906 -128.773 264.299 -94.4853 163.762Z" fill="#E9FBFF"/>
</svg>
